<svg width="369" height="389" viewBox="0 0 369 389" fill="none" xmlns="http://www.w3.org/2000/svg">
<path d="M362.531 179.144L280.181 25.7501C277.464 20.0141 273.539 14.9333 268.674 10.8556C263.81 6.77798 258.122 3.79979 252 2.12506C248.164 0.998948 244.186 0.430625 240.188 0.437563C232.429 0.836396 224.891 3.15581 218.25 7.18756L66.3752 91.2251C55.0062 97.8331 46.6544 108.606 43.0877 121.263L2.41894 262.844C0.542304 268.456 -0.156513 274.395 0.366172 280.29C0.888858 286.185 2.62181 291.909 5.45671 297.103C8.29161 302.298 12.1675 306.852 16.8422 310.481C21.5169 314.11 26.8898 316.735 32.6252 318.194L273.094 386.538C278.537 388.466 284.328 389.214 290.082 388.73C295.836 388.247 301.421 386.544 306.466 383.734C311.51 380.924 315.899 377.072 319.339 372.435C322.78 367.797 325.193 362.48 326.419 356.838L366.075 217.45C369.854 204.7 368.586 190.984 362.531 179.144Z" fill="white"/>
<path d="M347.006 187.244L266.513 37.0563C264.533 33.3198 261.826 30.0168 258.552 27.3414C255.277 24.666 251.5 22.6723 247.444 21.4775C243.388 20.2826 239.134 19.9107 234.932 20.3836C230.73 20.8565 226.664 22.1647 222.975 24.2313L75.4877 106.413C71.6456 108.642 68.2816 111.609 65.5885 115.142C62.8954 118.675 60.9262 122.704 59.794 127L20.3065 263.688C19.1388 267.577 18.7496 271.658 19.1611 275.698C19.5727 279.737 20.7769 283.656 22.7048 287.23C24.6327 290.804 27.2466 293.962 30.3967 296.524C33.5468 299.087 37.1713 301.003 41.0627 302.162L273.432 368.312C277.309 369.467 281.379 369.836 285.401 369.397C289.423 368.957 293.317 367.719 296.854 365.754C300.391 363.789 303.499 361.137 305.997 357.954C308.495 354.771 310.332 351.121 311.4 347.219L349.875 212.219C352.052 203.826 351.029 194.924 347.006 187.244Z" fill="#00ADE6"/>
<path d="M199.181 174.419C212.175 155.688 224.156 136.956 246.262 136.956C256.303 136.956 265.935 140.933 273.051 148.018C280.167 155.102 284.187 164.716 284.231 174.756V285.288H256.556V180.663C256.556 166.319 244.912 166.319 244.912 166.319C235.462 166.319 218.419 189.606 199.35 215.594V285.288H171.337V253.056C171.337 253.056 152.944 285.456 125.269 285.456C94.05 285.456 83.25 263.856 83.25 212.388C83.25 160.919 90.3375 137.125 123.75 137.125C149.231 137.125 171.169 174.25 171.169 174.25V150.625L199.181 112.994C199.181 112.994 199.012 174.588 199.181 174.419ZM166.275 216.1C166.275 216.1 140.794 166.319 124.256 166.319C111.431 166.319 110.25 179.819 110.25 212.388C110.25 244.956 112.106 257.781 124.087 257.781C140.456 257.613 166.275 216.1 166.275 216.1Z" fill="white"/>
</svg>
