<svg xmlns="http://www.w3.org/2000/svg" viewBox="0 0 2313 399">
  <title>
    Allerhande logo Copy
  </title>
  <g fill="none" fill-rule="evenodd">
    <path fill="#3B9FE2" d="M1073.88 149.015c16.167 0 30.797 3.96 43.892 11.882 13.096 7.922 23.36 19.48 30.798 34.678 7.437 15.197 11.155 33.142 11.155 53.835v135.315c0 2.263-.647 4.042-1.94 5.335-1.293 1.293-3.072 1.94-5.335 1.94h-49.47c-2.263 0-4.042-.647-5.335-1.94-1.293-1.293-1.94-3.072-1.94-5.335V261.05c0-18.43-4.203-31.848-12.61-40.255-8.407-8.407-19.077-12.61-32.01-12.61-10.993 0-20.45 2.91-28.373 8.73-7.92 5.82-13.903 12.448-17.944 19.885-4.042 7.437-6.063 13.418-6.063 17.945v129.98c0 2.263-.647 4.042-1.94 5.335-1.293 1.293-3.072 1.94-5.335 1.94h-49.47c-2.263 0-4.042-.647-5.335-1.94-1.293-1.293-1.94-3.072-1.94-5.335v-339.5c0-2.263.647-4.042 1.94-5.335 1.293-1.293 3.072-1.94 5.335-1.94h49.47c2.263 0 4.042.647 5.335 1.94 1.293 1.293 1.94 3.072 1.94 5.335V193.15c8.407-13.58 18.915-24.33 31.525-32.253 12.61-7.92 27.16-11.882 43.65-11.882zm357.48 5.335c2.263 0 4.042.647 5.335 1.94 1.293 1.293 1.94 3.072 1.94 5.335v223.1c0 2.263-.647 4.042-1.94 5.335-1.293 1.293-3.072 1.94-5.335 1.94h-44.62c-4.203 0-6.628-2.425-7.275-7.275l-1.94-20.37c-19.4 22.633-43.327 33.95-71.78 33.95-21.663 0-41.306-5.497-58.927-16.49-17.622-10.993-31.364-26.028-41.226-45.105-9.86-19.077-14.792-40.093-14.792-63.05 0-22.957 4.93-43.973 14.793-63.05 9.86-19.077 23.603-34.112 41.225-45.105 17.62-10.993 37.264-16.49 58.927-16.49 27.807 0 51.895 11.64 72.265 34.92l1.455-22.31c.647-4.85 3.072-7.275 7.275-7.275h44.62zm-117.855 185.755c11.317 0 21.582-3.072 30.797-9.215 9.216-6.143 16.49-14.307 21.826-24.493 5.335-10.185 8.002-21.26 8.002-33.222 0-18.107-5.82-33.627-17.46-46.56s-26.028-19.4-43.165-19.4c-17.783 0-32.414 6.224-43.893 18.672-11.478 12.45-17.217 28.21-17.217 47.288 0 19.077 5.74 35 17.217 47.772 11.48 12.772 26.11 19.158 43.893 19.158zm302.675-191.09c16.167 0 30.797 3.96 43.892 11.883 13.096 7.92 23.36 19.48 30.798 34.677 7.437 15.197 11.155 33.142 11.155 53.835v135.315c0 2.263-.647 4.042-1.94 5.335-1.293 1.293-3.072 1.94-5.335 1.94h-49.47c-2.263 0-4.042-.647-5.335-1.94-1.293-1.293-1.94-3.072-1.94-5.335V261.05c0-18.43-4.203-31.848-12.61-40.255-8.407-8.407-19.077-12.61-32.01-12.61-10.993 0-20.45 2.91-28.372 8.73-7.922 5.82-13.904 12.448-17.945 19.885-4.042 7.437-6.063 13.418-6.063 17.945v129.98c0 2.263-.647 4.042-1.94 5.335-1.293 1.293-3.072 1.94-5.335 1.94h-49.47c-2.263 0-4.042-.647-5.335-1.94-1.293-1.293-1.94-3.072-1.94-5.335v-223.1c0-2.263.647-4.042 1.94-5.335 1.293-1.293 3.072-1.94 5.335-1.94h47.53c4.203 0 6.628 2.425 7.275 7.275l1.94 31.04v.485c8.407-13.58 18.915-24.33 31.525-32.252 12.61-7.922 27.16-11.883 43.65-11.883zM1973.66 37.95c2.263 0 4.042.647 5.335 1.94 1.293 1.293 1.94 3.072 1.94 5.335v339.5c0 2.263-.647 4.042-1.94 5.335-1.293 1.293-3.072 1.94-5.335 1.94h-44.62c-4.203 0-6.628-2.425-7.275-7.275l-1.94-20.37c-19.4 22.633-43.327 33.95-71.78 33.95-21.663 0-41.306-5.497-58.928-16.49-17.62-10.993-31.363-26.028-41.225-45.105-9.86-19.077-14.792-40.093-14.792-63.05 0-22.957 4.93-43.973 14.793-63.05 9.86-19.077 23.603-34.112 41.225-45.105 17.62-10.993 37.264-16.49 58.927-16.49 26.19 0 49.147 10.347 68.87 31.04V45.225c0-2.263.647-4.042 1.94-5.335 1.293-1.293 3.072-1.94 5.335-1.94h49.47zm-117.855 302.155c11.317 0 21.582-3.072 30.797-9.215 9.216-6.143 16.49-14.307 21.825-24.493 5.336-10.185 8.003-21.26 8.003-33.222 0-18.107-5.82-33.627-17.46-46.56s-26.028-19.4-43.165-19.4c-17.783 0-32.414 6.224-43.893 18.672-11.478 12.45-17.217 28.21-17.217 47.288 0 19.077 5.74 35 17.217 47.772 11.48 12.772 26.11 19.158 43.893 19.158zm389.005-71.78c0 10.347-1.132 17.702-3.395 22.068-2.263 4.365-6.79 6.547-13.58 6.547h-152.29c3.233 15.843 10.67 28.05 22.31 36.618 11.64 8.568 26.837 12.852 45.59 12.852 9.377 0 18.107-1.293 26.19-3.88 8.083-2.587 16.167-6.79 24.25-12.61 1.617-1.293 3.395-1.94 5.335-1.94s3.718.808 5.335 2.425l21.34 20.855c1.617 1.617 2.425 3.233 2.425 4.85 0 1.94-.97 3.88-2.91 5.82-11.64 11.64-24.977 20.612-40.012 26.918-15.036 6.305-31.12 9.457-48.258 9.457-24.25 0-45.913-5.497-64.99-16.49-19.077-10.993-33.87-25.947-44.378-44.862-10.508-18.916-15.762-40.013-15.762-63.293 0-22.957 5.173-43.973 15.52-63.05 10.347-19.077 24.654-34.112 42.922-45.105 18.27-10.993 38.72-16.49 61.353-16.49 22.31 0 42.033 5.416 59.17 16.248 17.137 10.83 30.393 25.3 39.77 43.407 9.377 18.107 14.065 37.992 14.065 59.655zm-112.52-64.99c-14.873 0-27.564 4.527-38.072 13.58-10.51 9.053-17.056 21.825-19.643 38.315h113.49c-2.263-16.49-8.487-29.262-18.673-38.315-10.185-9.053-22.552-13.58-37.102-13.58z"/>
    <path fill="#000" d="M240.96 154.35c2.263 0 4.042.647 5.335 1.94 1.293 1.293 1.94 3.072 1.94 5.335v223.1c0 2.263-.647 4.042-1.94 5.335-1.293 1.293-3.072 1.94-5.335 1.94h-44.62c-4.203 0-6.628-2.425-7.275-7.275l-1.94-20.37c-19.4 22.633-43.327 33.95-71.78 33.95-21.663 0-41.306-5.497-58.928-16.49-17.62-10.993-31.363-26.028-41.224-45.105C5.33 317.633.4 296.617.4 273.66c0-22.957 4.93-43.973 14.793-63.05 9.86-19.077 23.603-34.112 41.224-45.105 17.622-10.993 37.265-16.49 58.928-16.49 27.807 0 51.895 11.64 72.265 34.92l1.455-22.31c.647-4.85 3.072-7.275 7.275-7.275h44.62zM123.105 340.105c11.317 0 21.582-3.072 30.797-9.215 9.216-6.143 16.49-14.307 21.826-24.493 5.335-10.185 8.002-21.26 8.002-33.222 0-18.107-5.82-33.627-17.46-46.56s-26.028-19.4-43.165-19.4c-17.783 0-32.414 6.224-43.892 18.672-11.48 12.45-17.218 28.21-17.218 47.288 0 19.077 5.74 35 17.218 47.772 11.478 12.772 26.11 19.158 43.892 19.158zM291.92 45.225c0-2.263.647-4.042 1.94-5.335 1.293-1.293 3.072-1.94 5.335-1.94h49.47c2.263 0 4.042.647 5.335 1.94 1.293 1.293 1.94 3.072 1.94 5.335v339.5c0 2.263-.647 4.042-1.94 5.335-1.293 1.293-3.072 1.94-5.335 1.94h-49.47c-2.263 0-4.042-.647-5.335-1.94-1.293-1.293-1.94-3.072-1.94-5.335v-339.5zm107.705 0c0-2.263.647-4.042 1.94-5.335 1.293-1.293 3.072-1.94 5.335-1.94h49.47c2.263 0 4.042.647 5.335 1.94 1.293 1.293 1.94 3.072 1.94 5.335v339.5c0 2.263-.647 4.042-1.94 5.335-1.293 1.293-3.072 1.94-5.335 1.94H406.9c-2.263 0-4.042-.647-5.335-1.94-1.293-1.293-1.94-3.072-1.94-5.335v-339.5zm328.38 223.1c0 10.347-1.132 17.702-3.395 22.068-2.263 4.365-6.79 6.547-13.58 6.547H558.74c3.233 15.843 10.67 28.05 22.31 36.618 11.64 8.568 26.837 12.852 45.59 12.852 9.377 0 18.107-1.293 26.19-3.88 8.083-2.587 16.167-6.79 24.25-12.61 1.617-1.293 3.395-1.94 5.335-1.94s3.718.808 5.335 2.425l21.34 20.855c1.617 1.617 2.425 3.233 2.425 4.85 0 1.94-.97 3.88-2.91 5.82-11.64 11.64-24.977 20.612-40.013 26.918-15.035 6.305-31.12 9.457-48.257 9.457-24.25 0-45.913-5.497-64.99-16.49-19.077-10.993-33.87-25.947-44.378-44.862-10.508-18.916-15.762-40.013-15.762-63.293 0-22.957 5.173-43.973 15.52-63.05 10.347-19.077 24.654-34.112 42.923-45.105 18.268-10.993 38.72-16.49 61.352-16.49 22.31 0 42.033 5.416 59.17 16.248 17.137 10.83 30.393 25.3 39.77 43.407 9.377 18.107 14.065 37.992 14.065 59.655zm-112.52-64.99c-14.873 0-27.564 4.527-38.072 13.58-10.51 9.053-17.056 21.825-19.643 38.315h113.49c-2.263-16.49-8.487-29.262-18.673-38.315-10.185-9.053-22.552-13.58-37.102-13.58zM915.25 160.17c2.263 1.94 3.395 3.88 3.395 5.82 0 .647-.323 1.94-.97 3.88l-14.55 35.89c-1.617 4.85-5.173 6.467-10.67 4.85-7.437-2.263-14.065-3.395-19.885-3.395-14.873 0-26.837 4.85-35.89 14.55-9.053 9.7-13.58 21.987-13.58 36.86v126.1c0 2.263-.647 4.042-1.94 5.335-1.293 1.293-3.072 1.94-5.335 1.94h-49.47c-2.263 0-4.042-.647-5.335-1.94-1.293-1.293-1.94-3.072-1.94-5.335v-223.1c0-2.263.647-4.042 1.94-5.335 1.293-1.293 3.072-1.94 5.335-1.94H813.4c4.203 0 6.628 2.425 7.275 7.275l1.94 26.19c14.227-25.867 34.435-38.8 60.625-38.8 6.467 0 12.448 1.05 17.945 3.153 5.497 2.1 10.185 4.77 14.065 8.002z"/>
    <path fill="#3B9FE2" d="M2310.387 70.503l-33.882-63.148c-3.573-6.64-11.747-9.072-18.276-5.433l-62.02 34.6c-2.79 1.597-5.398 4.388-6.58 8.342l-16.647 57.83c-1.996 6.918 1.902 14.172 8.71 16.202l97.763 27.822c6.8 2.03 13.937-1.94 15.933-8.867l16.174-56.7c1.048-3.33.46-7.435-1.183-10.64"/>
    <path fill="#FEFEFE" d="M2234.392 82.66s-10.754-20.98-17.706-20.98c-5.387.008-5.852 5.702-5.838 19.42.02 13.73.76 19.077 5.823 19.077 6.88-.007 17.728-17.518 17.728-17.518m13.82-17.51c5.51-7.934 10.488-15.79 19.802-15.79 10.313-.006 15.9 8.63 15.936 15.9l-.045 46.532-11.58-.003-.05-44.04c0-6.05-4.86-6.04-4.925-6.04-3.916 0-11.118 9.825-19.133 20.737v29.36l-11.71.012-.015-13.59s-7.74 13.59-19.332 13.605c-13.152.004-17.615-9.047-17.648-30.72-.02-20.653 2.907-31.7 17.004-31.715 10.72-.01 19.93 15.63 19.93 15.63l.008-9.903 11.764-15.857s-.05 25.942-.007 25.882"/>
  </g>
</svg>
