<svg fill="none" viewBox="0 0 200 36" xmlns="http://www.w3.org/2000/svg"><g clip-path="url(#a)" clip-rule="evenodd" fill-rule="evenodd"><path d="m92.07 14.492c1.4018 0 2.6704 0.3417 3.8058 1.0252 1.1356 0.6835 2.0256 1.6807 2.6705 2.992 0.6449 1.3111 0.9673 2.8594 0.9673 4.6448v11.675c0 0.1952-0.0561 0.3487-0.1683 0.4603-0.1121 0.1115-0.2663 0.1673-0.4626 0.1673h-4.2895c-0.1962 0-0.3504-0.0558-0.4626-0.1673-0.1121-0.1116-0.1682-0.2651-0.1682-0.4603v-10.67c0-1.5902-0.3644-2.7478-1.0934-3.4732-0.7289-0.7253-1.6541-1.088-2.7755-1.088-0.9532 0-1.7732 0.2511-2.4602 0.7533-0.6868 0.5021-1.2056 1.074-1.556 1.7156-0.3504 0.6417-0.5257 1.1577-0.5257 1.5483v11.214c0 0.1952-0.0561 0.3487-0.1682 0.4603-0.1121 0.1115-0.2664 0.1673-0.4626 0.1673h-4.2895c-0.1962 0-0.3505-0.0558-0.4626-0.1673-0.1121-0.1116-0.1682-0.2651-0.1682-0.4603v-29.292c0-0.19525 0.0561-0.34874 0.1682-0.4603s0.2664-0.16738 0.4626-0.16738h4.2895c0.1962 0 0.3505 0.05582 0.4626 0.16738s0.1682 0.26505 0.1682 0.4603v12.763c0.729-1.1716 1.6401-2.0991 2.7335-2.7827 1.0934-0.6833 2.3551-1.0252 3.7849-1.0252zm30.996 0.4603c0.197 0 0.351 0.0559 0.463 0.1674 0.112 0.1116 0.168 0.2651 0.168 0.4603v19.249c0 0.1952-0.056 0.3487-0.168 0.4603-0.112 0.1115-0.266 0.1673-0.463 0.1673h-3.869c-0.364 0-0.574-0.2092-0.63-0.6276l-0.169-1.7575c-1.682 1.9527-3.757 2.9291-6.224 2.9291-1.878 0-3.581-0.4742-5.109-1.4227s-2.72-2.2457-3.575-3.8916-1.282-3.4592-1.282-5.4399 0.427-3.7939 1.282-5.4398c0.855-1.646 2.047-2.9432 3.575-3.8916 1.528-0.9485 3.231-1.4228 5.109-1.4228 2.411 0 4.5 1.0043 6.266 3.0129l0.127-1.9249c0.056-0.4184 0.266-0.6277 0.63-0.6277h3.869zm-10.219 16.027c0.982 0 1.872-0.265 2.671-0.795s1.429-1.2344 1.892-2.1133c0.463-0.8787 0.694-1.8342 0.694-2.8663 0-1.5623-0.505-2.9013-1.514-4.0171-1.009-1.1159-2.257-1.6738-3.743-1.6738-1.542 0-2.81 0.537-3.806 1.611-0.995 1.0741-1.493 2.4339-1.493 4.0799 0 1.6459 0.498 3.0197 1.493 4.1217 0.996 1.1019 2.264 1.6529 3.806 1.6529zm26.245-16.487c1.402 0 2.67 0.3417 3.806 1.0253 1.135 0.6833 2.025 1.6807 2.67 2.9919 0.645 1.3111 0.968 2.8594 0.968 4.6448v11.675c0 0.1952-0.057 0.3487-0.169 0.4603-0.112 0.1115-0.266 0.1673-0.462 0.1673h-4.29c-0.196 0-0.35-0.0558-0.462-0.1673-0.113-0.1116-0.169-0.2651-0.169-0.4603v-10.67c0-1.5902-0.364-2.7478-1.093-3.4732-0.729-0.7253-1.654-1.088-2.776-1.088-0.953 0-1.773 0.2511-2.46 0.7533-0.687 0.5021-1.205 1.074-1.556 1.7156-0.35 0.6417-0.525 1.1577-0.525 1.5483v11.214c0 0.1952-0.057 0.3487-0.169 0.4603-0.112 0.1115-0.266 0.1673-0.462 0.1673h-4.29c-0.196 0-0.35-0.0558-0.462-0.1673-0.112-0.1116-0.169-0.2651-0.169-0.4603v-19.249c0-0.1952 0.057-0.3487 0.169-0.4603 0.112-0.1115 0.266-0.1674 0.462-0.1674h4.122c0.364 0 0.574 0.2093 0.63 0.6277l0.169 2.6781v0.0418c0.729-1.1716 1.64-2.0991 2.733-2.7826 1.094-0.6835 2.355-1.0253 3.785-1.0253zm30.997-9.5825c0.196 0 0.35 0.05582 0.462 0.16738s0.169 0.26505 0.169 0.4603v29.292c0 0.1952-0.057 0.3487-0.169 0.4603-0.112 0.1115-0.266 0.1673-0.462 0.1673h-3.869c-0.365 0-0.575-0.2092-0.631-0.6276l-0.168-1.7575c-1.682 1.9527-3.757 2.9291-6.224 2.9291-1.879 0-3.582-0.4742-5.11-1.4227s-2.719-2.2457-3.574-3.8916-1.283-3.4592-1.283-5.4399 0.427-3.7939 1.283-5.4398c0.855-1.646 2.046-2.9432 3.574-3.8916 1.528-0.9485 3.231-1.4228 5.11-1.4228 2.271 0 4.261 0.8928 5.971 2.6781v-11.633c0-0.19525 0.057-0.34874 0.169-0.4603s0.266-0.16738 0.462-0.16738h4.29zm-10.219 26.069c0.981 0 1.871-0.265 2.67-0.795s1.43-1.2344 1.892-2.1133c0.463-0.8787 0.694-1.8342 0.694-2.8663 0-1.5623-0.504-2.9013-1.514-4.0171-1.009-1.1159-2.256-1.6738-3.742-1.6738-1.542 0-2.811 0.537-3.806 1.611-0.996 1.0741-1.493 2.4339-1.493 4.0799 0 1.6459 0.498 3.0197 1.493 4.1217 0.995 1.1019 2.264 1.6529 3.806 1.6529zm33.73-6.1931c0 0.8928-0.098 1.5273-0.294 1.904-0.197 0.3766-0.589 0.5649-1.178 0.5649h-13.205c0.28 1.3669 0.925 2.4201 1.935 3.1593 1.009 0.7393 2.327 1.1089 3.953 1.1089 0.813 0 1.57-0.1116 2.271-0.3348s1.401-0.5858 2.102-1.0879c0.141-0.1116 0.295-0.1674 0.463-0.1674s0.322 0.0697 0.463 0.2092l1.85 1.7993c0.14 0.1396 0.21 0.279 0.21 0.4185 0 0.1674-0.084 0.3348-0.252 0.5021-1.009 1.0043-2.166 1.7784-3.47 2.3225-1.303 0.544-2.698 0.8159-4.184 0.8159-2.103 0-3.981-0.4742-5.635-1.4227s-2.937-2.2387-3.848-3.8706c-0.911-1.6321-1.367-3.4523-1.367-5.4609 0-1.9807 0.449-3.7939 1.346-5.4398 0.897-1.646 2.138-2.9432 3.722-3.8916 1.584-0.9485 3.357-1.4228 5.319-1.4228 1.935 0 3.645 0.4673 5.131 1.4019 1.486 0.9344 2.635 2.1828 3.448 3.7451 0.814 1.5622 1.22 3.2779 1.22 5.1469zm-9.757-5.6072c-1.289 0-2.39 0.3906-3.301 1.1717-0.911 0.781-1.479 1.883-1.703 3.3057h9.841c-0.197-1.4227-0.736-2.5247-1.619-3.3057-0.884-0.7811-1.956-1.1717-3.218-1.1717z" fill="#3B9FE2"/><path d="m20.539 14.952c0.1932 0 0.3451 0.0559 0.4555 0.1674 0.1104 0.1116 0.1656 0.2651 0.1656 0.4603v19.249c0 0.1952-0.0552 0.3487-0.1656 0.4603-0.1104 0.1115-0.2623 0.1673-0.4555 0.1673h-3.8097c-0.3588 0-0.5659-0.2092-0.6211-0.6276l-0.1657-1.7575c-1.6563 1.9527-3.6992 2.9291-6.1286 2.9291-1.8496 0-3.5267-0.4742-5.0313-1.4227-1.5044-0.9485-2.6778-2.2457-3.5197-3.8916-0.8421-1.6459-1.263-3.4592-1.263-5.4399s0.42092-3.7939 1.263-5.4398c0.84185-1.646 2.0152-2.9432 3.5197-3.8916 1.5046-0.9485 3.1817-1.4228 5.0313-1.4228 2.3742 0 4.4308 1.0043 6.17 3.0129l0.1243-1.9249c0.0552-0.4184 0.2623-0.6277 0.6211-0.6277h3.8097zm-10.062 16.027c0.9662 0 1.8427-0.265 2.6294-0.795 0.7869-0.53 1.408-1.2344 1.8636-2.1133 0.4555-0.8787 0.6832-1.8342 0.6832-2.8663 0-1.5623-0.4969-2.9013-1.4908-4.0171-0.9938-1.1159-2.2222-1.6738-3.6854-1.6738-1.5183 0-2.7675 0.537-3.7475 1.611-0.98017 1.0741-1.4701 2.4339-1.4701 4.0799 0 1.6459 0.49008 3.0197 1.4701 4.1217 0.97999 1.1019 2.2293 1.6529 3.7475 1.6529zm14.414-25.442c0-0.19525 0.0552-0.34874 0.1656-0.4603s0.2623-0.16738 0.4555-0.16738h4.2238c0.1932 0 0.3451 0.05582 0.4555 0.16738s0.1656 0.26505 0.1656 0.4603v29.292c0 0.1952-0.0552 0.3487-0.1656 0.4603-0.1104 0.1115-0.2623 0.1673-0.4555 0.1673h-4.2238c-0.1932 0-0.3451-0.0558-0.4555-0.1673-0.1104-0.1116-0.1656-0.2651-0.1656-0.4603v-29.292zm9.1958 0c0-0.19525 0.0553-0.34874 0.1657-0.4603s0.2623-0.16738 0.4555-0.16738h4.2237c0.1933 0 0.3451 0.05582 0.4555 0.16738s0.1657 0.26505 0.1657 0.4603v29.292c0 0.1952-0.0553 0.3487-0.1657 0.4603-0.1104 0.1115-0.2622 0.1673-0.4555 0.1673h-4.2237c-0.1932 0-0.3451-0.0558-0.4555-0.1673-0.1104-0.1116-0.1657-0.2651-0.1657-0.4603v-29.292zm28.037 19.249c0 0.8928-0.0966 1.5273-0.2899 1.904-0.1932 0.3766-0.5797 0.5649-1.1594 0.5649h-13.003c0.2761 1.3669 0.911 2.4201 1.9048 3.1593 0.9939 0.7393 2.2914 1.1089 3.8925 1.1089 0.8006 0 1.546-0.1116 2.2361-0.3348 0.6902-0.2232 1.3804-0.5858 2.0705-1.0879 0.1381-0.1116 0.2899-0.1674 0.4555-0.1674 0.1657 0 0.3175 0.0697 0.4555 0.2092l1.822 1.7993c0.1381 0.1396 0.2071 0.279 0.2071 0.4185 0 0.1674-0.0828 0.3348-0.2485 0.5021-0.9938 1.0043-2.1325 1.7784-3.4163 2.3225-1.2837 0.544-2.657 0.8159-4.1202 0.8159-2.0705 0-3.92-0.4742-5.5488-1.4227s-2.8919-2.2387-3.7891-3.8706c-0.8971-1.6321-1.3457-3.4523-1.3457-5.4609 0-1.9807 0.4417-3.7939 1.3251-5.4398 0.8834-1.646 2.1049-2.9432 3.6648-3.8916 1.5597-0.9485 3.3059-1.4228 5.2382-1.4228 1.9048 0 3.5888 0.4673 5.052 1.4019 1.4631 0.9344 2.5949 2.1828 3.3955 3.7451 0.8006 1.5622 1.2009 3.2779 1.2009 5.1469zm-9.607-5.6072c-1.2698 0-2.3534 0.3906-3.2506 1.1717-0.8973 0.781-1.4562 1.883-1.6771 3.3057h9.6898c-0.1932-1.4227-0.7246-2.5247-1.5943-3.3057-0.8696-0.7811-1.9255-1.1717-3.1678-1.1717zm25.594-3.7242c0.1932 0.1674 0.2899 0.3347 0.2899 0.5021 0 0.0558-0.0276 0.1674-0.0828 0.3348l-1.2423 3.0965c-0.1381 0.4185-0.4417 0.558-0.911 0.4185-0.635-0.1953-1.2009-0.2929-1.6978-0.2929-1.2699 0-2.2913 0.4184-3.0643 1.2553-0.7729 0.8369-1.1595 1.897-1.1595 3.1802v10.88c0 0.1952-0.0552 0.3487-0.1656 0.4603-0.1104 0.1115-0.2623 0.1673-0.4555 0.1673h-4.2238c-0.1932 0-0.3451-0.0558-0.4555-0.1673-0.1103-0.1116-0.1656-0.2651-0.1656-0.4603v-19.249c0-0.1952 0.0553-0.3487 0.1656-0.4603 0.1104-0.1115 0.2623-0.1674 0.4555-0.1674h4.0168c0.3588 0 0.5659 0.2093 0.6211 0.6277l0.1656 2.2597c1.2147-2.2318 2.9401-3.3477 5.1762-3.3477 0.5522 0 1.0628 0.0906 1.5322 0.2721 0.4693 0.1812 0.8696 0.4115 1.2008 0.6904z" fill="#fff"/><path d="m195.06 0.15048c0.598-0.32403 1.348-0.10748 1.675 0.48377l3.105 5.6236c0.151 0.28538 0.205 0.65091 0.109 0.94742l-1.483 5.0488c-0.183 0.6168-0.837 0.9703-1.46 0.7895l-8.963-2.4773c-0.624-0.1808-0.981-0.82672-0.798-1.4427l1.526-5.1494c0.108-0.35208 0.347-0.6006 0.603-0.74281l5.686-3.0809zm0.906 4.2782c0.938-5.4e-4 1.446 0.77844 1.449 1.4342l-4e-3 4.1972-1.053-3e-4 -5e-3 -3.9724c0-0.5449-0.44-0.54481-0.448-0.54481-0.355 0-1.006 0.87968-1.732 1.8596l-8e-3 0.01092v2.6484l-1.065 1e-3 -1e-3 -1.2258s-0.704 1.2258-1.759 1.2272c-1.196 4e-4 -1.602-0.81606-1.605-2.771-2e-3 -1.8629 0.265-2.8594 1.547-2.8607 0.975-9e-4 1.812 1.4098 1.812 1.4098l1e-3 -0.89327 1.07-1.4303s-4e-3 2.34 0 2.3346l0.07-0.10023c0.474-0.68012 0.923-1.324 1.731-1.324zm-4.669 1.1114c-0.49 7.3e-4 -0.533 0.51433-0.531 1.7517 1e-3 1.2385 0.069 1.7208 0.529 1.7208 0.626-6.3e-4 1.613-1.5801 1.613-1.5801l-3e-3 -0.00563c-0.06-0.1129-0.996-1.8867-1.608-1.8867z" fill="#3B9FE2"/></g><defs><clipPath id="a"><rect width="200" height="36" fill="#fff"/></clipPath></defs></svg>
